<svg width="84" height="84" viewBox="0 0 84 84" fill="none" xmlns="http://www.w3.org/2000/svg">
<rect width="84" height="84" fill="#575DE8"/>
<path d="M42.5 21C28.1848 21 15.6869 29.38 9 41.8336C15.6869 54.2871 28.1848 62.6671 42.5 62.6671C56.8152 62.6671 69.3131 54.2871 76 41.8336C69.3131 29.38 56.8152 21 42.5 21ZM66.2123 45.7688C64.8148 50.8665 58.5326 57.4484 50.1687 56.3637C42.2598 55.3385 37.3398 48.0876 37.3539 41.5309C37.366 35.7935 41.1519 31.9682 41.7937 31.3396C46.1789 27.0441 51.6126 27.0784 52.5904 27.1016C51.8477 27.6173 50.3342 28.8261 49.4623 30.936C49.3927 31.1045 48.9114 32.2921 48.8569 33.4586C48.6995 36.8469 52.0667 41.8628 57.0634 41.9052C60.702 41.9355 64.1045 39.3201 65.2033 35.4766C65.4717 35.9761 65.8168 36.6945 66.1114 37.5956C66.1114 37.5956 67.3848 41.4905 66.2123 45.7688Z" fill="white"/>
</svg>
